<?xml version="1.0" standalone="no"?>
<!DOCTYPE svg PUBLIC "-//W3C//DTD SVG 20010904//EN"
 "http://www.w3.org/TR/2001/REC-SVG-20010904/DTD/svg10.dtd">
<svg version="1.0" xmlns="http://www.w3.org/2000/svg"
 width="500.000000pt" height="500.000000pt" viewBox="0 0 500.000000 500.000000"
 preserveAspectRatio="xMidYMid meet">

<g transform="translate(0.000000,500.000000) scale(0.100000,-0.100000)"
fill="#000000" stroke="none">
<path d="M2164 3686 c-21 -12 -93 -58 -159 -101 -248 -161 -504 -325 -510
-325 -3 0 -5 49 -5 108 0 71 -4 112 -12 120 -8 8 -59 12 -164 12 -125 0 -155
-3 -168 -16 -14 -13 -16 -49 -16 -243 l0 -227 -33 -19 c-97 -57 -493 -319
-500 -330 -13 -24 4 -47 32 -43 14 2 372 228 795 503 423 274 774 498 780 498
7 0 73 -39 147 -87 74 -48 296 -193 494 -321 198 -128 485 -315 637 -414 289
-189 328 -207 328 -153 -1 24 -22 40 -203 156 -209 134 -261 168 -657 426
-129 84 -257 167 -283 183 -27 16 -45 33 -40 37 4 4 62 41 129 84 l121 77 154
-102 c294 -195 1005 -663 1163 -766 163 -107 201 -121 201 -75 0 19 -45 53
-260 195 -242 160 -842 555 -1132 744 l-126 83 -36 -22 c-20 -12 -87 -55 -149
-95 -62 -41 -119 -76 -127 -79 -8 -3 -81 38 -167 94 -205 133 -187 125 -234
98z m-744 -368 l0 -113 -104 -67 c-57 -38 -107 -68 -110 -68 -3 0 -6 81 -6
180 l0 180 110 0 110 0 0 -112z"/>
<path d="M550 2121 l0 -241 110 0 110 0 0 25 c0 25 -1 25 -80 25 l-80 0 -2
213 -3 212 -27 3 -28 3 0 -240z"/>
<path d="M1150 2120 l0 -240 125 0 125 0 0 25 c0 25 0 25 -95 25 l-95 0 0 85
0 85 85 0 c84 0 85 0 85 25 0 25 -1 25 -85 25 l-85 0 0 80 0 80 95 0 c95 0 95
0 95 25 l0 25 -125 0 -125 0 0 -240z"/>
<path d="M1915 2336 c-60 -28 -87 -56 -114 -116 -39 -86 -24 -195 37 -262 48
-54 102 -78 175 -78 128 0 219 82 234 211 l6 50 -129 -3 c-125 -3 -129 -4
-132 -25 -3 -22 -1 -23 92 -23 106 0 108 -2 82 -63 -54 -131 -246 -126 -307 8
-32 69 -19 165 29 218 65 72 213 65 260 -12 8 -15 23 -21 47 -21 19 0 35 5 35
10 0 6 -18 30 -41 54 -70 76 -179 97 -274 52z"/>
<path d="M2640 2120 l0 -240 125 0 125 0 0 25 c0 25 0 25 -95 25 l-95 0 0 85
0 85 85 0 c84 0 85 0 85 25 0 25 -1 25 -85 25 l-85 0 0 80 0 80 95 0 c95 0 95
0 95 25 l0 25 -125 0 -125 0 0 -240z"/>
<path d="M3297 2353 c-4 -3 -7 -111 -7 -240 l0 -233 30 0 30 0 2 188 3 187
125 -187 c119 -179 126 -187 158 -188 l32 0 -2 238 -3 237 -27 3 -28 3 0 -185
c0 -102 -3 -186 -7 -186 -5 0 -63 84 -131 185 -100 152 -126 185 -145 185 -13
0 -27 -3 -30 -7z"/>
<path d="M4080 2122 l0 -242 93 0 c192 0 283 62 302 206 14 102 -34 197 -119
239 -41 20 -73 26 -163 31 l-113 7 0 -241z m244 163 c47 -22 74 -61 85 -122
27 -142 -52 -233 -201 -233 l-68 0 0 191 0 192 74 -6 c41 -3 91 -13 110 -22z"/>
<path d="M922 1564 c-17 -12 -22 -24 -20 -47 3 -27 9 -34 48 -48 53 -20 70
-40 51 -63 -17 -20 -60 -21 -67 -1 -6 16 -34 21 -34 7 0 -18 38 -42 67 -42 36
0 63 27 63 64 0 22 -7 30 -37 42 -78 30 -94 55 -49 75 21 10 29 9 44 -4 20
-19 42 -22 42 -8 0 15 -42 41 -65 41 -11 0 -31 -7 -43 -16z"/>
<path d="M1980 1476 c0 -88 3 -106 15 -106 11 0 15 12 15 45 0 32 4 45 14 45
8 0 26 -20 40 -45 15 -25 34 -45 42 -45 12 0 10 8 -9 41 l-25 41 24 23 c29 29
30 45 6 75 -13 16 -32 24 -70 28 l-52 5 0 -107z m85 74 c21 -8 26 -16 23 -38
-3 -23 -8 -27 -40 -30 l-38 -3 0 40 c0 44 8 49 55 31z"/>
<path d="M2300 1570 c0 -5 11 -10 25 -10 25 0 25 0 25 -95 0 -78 3 -95 15 -95
12 0 15 17 15 95 l0 95 31 0 c17 0 28 4 24 10 -3 6 -35 10 -71 10 -36 0 -64
-4 -64 -10z"/>
<path d="M2850 1476 c0 -88 3 -106 15 -106 11 0 15 12 15 45 l0 45 50 0 50 0
0 -45 c0 -33 4 -45 15 -45 12 0 15 18 15 106 0 80 -3 105 -12 102 -7 -3 -14
-23 -16 -46 l-3 -42 -49 0 -49 0 -3 42 c-2 23 -9 43 -15 46 -10 3 -13 -22 -13
-102z"/>
<path d="M3248 1564 c-36 -19 -48 -43 -48 -94 0 -33 6 -48 29 -71 62 -61 171
-20 171 65 0 92 -76 142 -152 100z m105 -33 c30 -30 27 -89 -7 -117 -43 -37
-87 -31 -111 17 -22 42 -18 67 15 101 25 24 36 29 58 23 15 -3 35 -14 45 -24z"/>
<path d="M3997 1573 c-4 -3 -7 -51 -7 -105 l0 -98 55 0 c30 0 55 5 55 10 0 6
-18 10 -40 10 -39 0 -40 1 -40 35 0 33 2 35 35 35 24 0 35 5 35 15 0 10 -11
15 -35 15 -33 0 -35 2 -35 35 0 34 1 35 40 35 22 0 40 5 40 10 0 11 -93 14
-103 3z"/>
<path d="M1230 1470 c0 -60 4 -100 10 -100 6 0 10 31 10 72 0 39 3 68 7 65 3
-4 19 -35 34 -70 15 -34 33 -62 39 -62 6 0 24 28 39 62 15 35 31 66 34 70 4 3
7 -26 7 -65 0 -41 4 -72 10 -72 6 0 10 40 10 100 0 127 -13 130 -63 18 l-36
-83 -37 83 c-51 112 -64 109 -64 -18z"/>
<path d="M1682 1543 c-19 -48 -62 -165 -62 -169 0 -2 6 -4 14 -4 8 0 17 11 20
25 6 22 12 25 51 25 39 0 47 -3 55 -25 5 -14 16 -25 23 -25 11 0 5 25 -22 100
-38 106 -59 125 -79 73z m58 -90 c0 -8 -13 -13 -34 -13 l-34 0 16 51 17 52 17
-39 c10 -22 18 -45 18 -51z"/>
<path d="M3590 1470 c0 -115 18 -137 22 -27 l3 72 35 -72 c18 -40 38 -73 43
-73 4 0 23 33 42 73 l34 72 0 -72 c1 -58 4 -73 16 -73 12 0 15 18 15 100 0
130 -16 134 -70 18 l-38 -83 -27 60 c-15 33 -31 70 -36 83 -5 12 -15 22 -24
22 -12 0 -15 -17 -15 -100z"/>
</g>
</svg>
